<?xml version="1.0" encoding="UTF-8" standalone="no" ?>
<!DOCTYPE svg PUBLIC "-//W3C//DTD SVG 1.1//EN" "http://www.w3.org/Graphics/SVG/1.1/DTD/svg11.dtd">
<svg xmlns="http://www.w3.org/2000/svg" xmlns:xlink="http://www.w3.org/1999/xlink" version="1.1" width="1080" height="1080" viewBox="0 0 1080 1080" xml:space="preserve">
<desc>Created with Fabric.js 5.2.4</desc>
<defs>
</defs>
<rect x="0" y="0" width="100%" height="100%" fill="transparent"></rect>
<g transform="matrix(1 0 0 1 540 540)" id="a3fcbcf6-57fb-4488-83d7-2017806bc828"  >
</g>
<g transform="matrix(1 0 0 1 540 540)" id="d418608c-d36c-427b-8fa3-6a7a16c64776"  >
<rect style="stroke: none; stroke-width: 1; stroke-dasharray: none; stroke-linecap: butt; stroke-dashoffset: 0; stroke-linejoin: miter; stroke-miterlimit: 4; fill: rgb(255,255,255); fill-rule: nonzero; opacity: 1; visibility: hidden;" vector-effect="non-scaling-stroke"  x="-540" y="-540" rx="0" ry="0" width="1080" height="1080" />
</g>
<g transform="matrix(1.86 0 0 1.86 566.7 864.79)"  >
<path style="stroke: rgb(255,255,255); stroke-opacity: 0; stroke-width: 1; stroke-dasharray: none; stroke-linecap: butt; stroke-dashoffset: 0; stroke-linejoin: miter; stroke-miterlimit: 4; fill: rgb(0,0,0); fill-rule: nonzero; opacity: 1;" vector-effect="non-scaling-stroke"  transform=" translate(-166.95, -166.95)" d="M 0 166.952 C 0 74.747 74.747 0 166.952 0 C 259.157 0 333.904 74.747 333.905 166.952 C 333.905 259.157 259.15799999999996 333.904 166.95199999999997 333.905 C 74.74699999999997 333.905 -2.842170943040401e-14 259.15799999999996 -2.842170943040401e-14 166.95199999999997 z M 166.952 329.53 C 256.741 329.53 329.53 256.741 329.53 166.95199999999997 C 329.53 77.16299999999997 256.741 4.373999999999967 166.95199999999997 4.373999999999967 C 77.16299999999997 4.373999999999967 4.373999999999967 77.16299999999997 4.373999999999967 166.95199999999997 C 4.373999999999967 256.741 77.16299999999997 329.53 166.95199999999997 329.53 z" stroke-linecap="round" />
</g>
<g transform="matrix(1.86 0 0 1.86 566.59 864.63)"  >
<ellipse style="stroke: rgb(255,255,255); stroke-opacity: 0; stroke-width: 0; stroke-dasharray: none; stroke-linecap: butt; stroke-dashoffset: 0; stroke-linejoin: miter; stroke-miterlimit: 4; fill: rgb(0,0,0); fill-rule: nonzero; opacity: 1;" vector-effect="non-scaling-stroke"  cx="0" cy="0" rx="160.27418187383762" ry="160.27418187383762" />
</g>
<g transform="matrix(2.32 0 0 2.32 563.52 940.02)"  >
<path style="stroke: none; stroke-width: 1; stroke-dasharray: none; stroke-linecap: butt; stroke-dashoffset: 0; stroke-linejoin: miter; stroke-miterlimit: 4; fill: rgb(255,255,255); fill-rule: nonzero; opacity: 1;" vector-effect="non-scaling-stroke"  transform=" translate(-81.94, 17.84)" d="M 10.5 -7.65 L 10.5 -7.65 Q 12.4 -9.45 13.93 -11.25 Q 15.45 -13.05 16.78 -15.28 Q 18.1 -17.5 19.23 -20.38 Q 20.35 -23.25 21.45 -27.15 L 21.45 -27.15 Q 22.05 -29.4 22.48 -31.5 Q 22.9 -33.6 22.8 -35.6 L 22.8 -35.6 Q 22.8 -36 22.85 -36 L 22.85 -36 Q 22.95 -36 23 -35.85 Q 23.05 -35.7 23.1 -35.6 L 23.1 -35.6 Q 23.85 -33.25 23.6 -30.68 Q 23.35 -28.1 22.65 -25.43 Q 21.95 -22.75 21.03 -20 Q 20.1 -17.25 19.45 -14.5 L 19.45 -14.5 Q 19.05 -12.8 18.85 -10.9 Q 18.65 -9 18.73 -7.13 Q 18.8 -5.25 19.2 -3.45 Q 19.6 -1.65 20.45 -0.1 L 20.45 -0.1 Q 20.5 -0.05 20.5 0.05 L 20.5 0.05 L 20.5 0.15 Q 20.35 0.15 20.3 0.1 L 20.3 0.1 L 20.2 0 Q 18.25 -2.1 17.55 -5.15 L 17.55 -5.15 Q 16.85 -4.3 16.13 -3.5 Q 15.4 -2.7 14.1 -1.85 L 14.1 -1.85 Q 12 -0.45 9.43 0.08 Q 6.85 0.6 4.3 -0.6 L 4.3 -0.6 Q 2.8 -1.35 2 -2.58 Q 1.2 -3.8 0.83 -5.23 Q 0.45 -6.65 0.38 -8.13 Q 0.3 -9.6 0.25 -10.8 L 0.25 -10.8 Q 0.15 -13.15 0.48 -15.35 Q 0.8 -17.55 1.35 -19.48 Q 1.9 -21.4 2.6 -22.95 Q 3.3 -24.5 3.95 -25.55 L 3.95 -25.55 Q 4 -25.65 4.13 -25.78 Q 4.25 -25.9 4.3 -25.9 L 4.3 -25.9 Q 4.4 -25.85 4.33 -25.63 Q 4.25 -25.4 4.2 -25.3 L 4.2 -25.3 Q 3.45 -23.05 2.85 -20.7 Q 2.25 -18.35 1.95 -15.95 Q 1.65 -13.55 1.73 -11.13 Q 1.8 -8.7 2.4 -6.25 L 2.4 -6.25 Q 2.65 -5.25 3.15 -4.17 Q 3.65 -3.1 4.8 -2.25 L 4.8 -2.25 Q 5.45 -1.75 6.15 -1.55 Q 6.85 -1.35 7.5 -1.33 Q 8.15 -1.3 8.72 -1.4 Q 9.3 -1.5 9.8 -1.65 L 9.8 -1.65 Q 12.05 -2.2 13.68 -3.65 Q 15.3 -5.1 16.45 -6.6 L 16.45 -6.6 Q 16.9 -7.1 17.2 -7.75 L 17.2 -7.75 Q 17.15 -8.7 17.25 -9.95 Q 17.35 -11.2 17.5 -12.3 Q 17.65 -13.4 17.75 -14.15 Q 17.85 -14.9 17.8 -14.85 L 17.8 -14.85 Q 16.65 -12.3 15.08 -10.38 Q 13.5 -8.45 12.35 -7.25 L 12.35 -7.25 Q 11.6 -6.45 10.68 -5.85 Q 9.75 -5.25 8.85 -5 Q 7.95 -4.75 7.2 -5 Q 6.45 -5.25 6.1 -6.15 L 6.1 -6.15 Q 5.4 -8.2 5.1 -10.68 Q 4.8 -13.15 5.05 -15.7 L 5.05 -15.7 Q 5.6 -20.8 7.48 -25.75 Q 9.35 -30.7 12.75 -34.8 L 12.75 -34.8 Q 12.95 -35.05 13.13 -35.15 Q 13.3 -35.25 13 -34.75 L 13 -34.75 Q 11.9 -33.05 10.88 -30.85 Q 9.85 -28.65 9.03 -26.23 Q 8.2 -23.8 7.58 -21.25 Q 6.95 -18.7 6.7 -16.3 L 6.7 -16.3 Q 6.45 -13.9 6.5 -11.58 Q 6.55 -9.25 7.25 -7.45 L 7.25 -7.45 Q 7.5 -6.8 7.93 -6.63 Q 8.35 -6.45 8.8 -6.58 Q 9.25 -6.7 9.7 -7.03 Q 10.15 -7.35 10.5 -7.65 Z M 11.3 -3.65 L 11.3 -3.65 Q 10.75 -3.35 10.15 -3.05 Q 9.55 -2.75 8.93 -2.58 Q 8.3 -2.4 7.6 -2.4 Q 6.9 -2.4 6.15 -2.65 L 6.15 -2.65 Q 4.7 -3.15 4.08 -4.33 Q 3.45 -5.5 3.1 -6.6 L 3.1 -6.6 Q 2.3 -9 2.38 -11.38 Q 2.45 -13.75 2.75 -16.45 L 2.75 -16.45 Q 2.95 -18.35 3.58 -20.63 Q 4.2 -22.9 5.15 -25.15 Q 6.1 -27.4 7.28 -29.35 Q 8.45 -31.3 9.75 -32.55 L 9.75 -32.55 Q 9.85 -32.65 10.13 -32.93 Q 10.4 -33.2 10.5 -33.1 L 10.5 -33.1 Q 10.55 -33.05 10.05 -32.25 L 10.05 -32.25 Q 9.55 -31.45 8.85 -30.1 Q 8.15 -28.75 7.45 -27.03 Q 6.75 -25.3 6.08 -23.33 Q 5.4 -21.35 4.95 -19.25 L 4.95 -19.25 Q 4.5 -17.2 4.35 -15.25 Q 4.2 -13.3 4.23 -11.68 Q 4.25 -10.05 4.38 -8.93 Q 4.5 -7.8 4.6 -7.4 L 4.6 -7.4 Q 4.85 -6.4 5.33 -5.33 Q 5.8 -4.25 6.65 -3.85 L 6.65 -3.85 Q 7.5 -3.45 8.78 -3.6 Q 10.05 -3.75 11.05 -4.3 L 11.05 -4.3 Q 11.1 -4.35 11.35 -4.5 Q 11.6 -4.65 11.88 -4.83 Q 12.15 -5 12.38 -5.13 Q 12.6 -5.25 12.65 -5.2 L 12.65 -5.2 Q 12.7 -5.1 12.6 -4.9 Q 12.5 -4.7 12.28 -4.45 Q 12.05 -4.2 11.78 -3.98 Q 11.5 -3.75 11.3 -3.65 Z M 24.85 -14.05 L 24.85 -14.05 Q 24.25 -11.65 23.43 -9.15 Q 22.6 -6.65 22 -4.8 L 22 -4.8 Q 21.9 -4.55 21.8 -4.3 Q 21.7 -4.05 21.6 -4.1 L 21.6 -4.1 Q 21.45 -4.15 21.45 -4.42 Q 21.45 -4.7 21.45 -4.95 L 21.45 -4.95 Q 21.65 -8.7 22.58 -12.4 Q 23.5 -16.1 24.65 -19.85 L 24.65 -19.85 Q 25.35 -22.2 25.98 -24.63 Q 26.6 -27.05 26.7 -29.85 L 26.7 -29.85 Q 26.7 -30.2 26.8 -30.2 L 26.8 -30.2 Q 26.95 -30.2 27.05 -29.85 L 27.05 -29.85 Q 27.6 -28.5 27.45 -26.38 Q 27.3 -24.25 26.83 -21.95 Q 26.35 -19.65 25.75 -17.5 Q 25.15 -15.35 24.85 -14.05 Z M 25.4 -25 L 25.4 -25 Q 24.7 -22.3 23.9 -19.45 Q 23.1 -16.6 21.65 -14.05 L 21.65 -14.05 Q 21.55 -13.9 21.33 -13.53 Q 21.1 -13.15 20.95 -13.2 L 20.95 -13.2 Q 20.85 -13.2 20.85 -13.6 Q 20.85 -14 20.9 -14.25 L 20.9 -14.25 Q 20.95 -14.85 21.1 -15.73 Q 21.25 -16.6 21.48 -17.53 Q 21.7 -18.45 21.93 -19.33 Q 22.15 -20.2 22.35 -20.8 L 22.35 -20.8 Q 22.45 -21.1 22.68 -21.98 Q 22.9 -22.85 23.15 -24.05 Q 23.4 -25.25 23.65 -26.68 Q 23.9 -28.1 24.08 -29.5 Q 24.25 -30.9 24.3 -32.15 Q 24.35 -33.4 24.2 -34.3 L 24.2 -34.3 Q 24.1 -34.75 24.25 -34.75 L 24.25 -34.75 Q 24.35 -34.75 24.45 -34.65 Q 24.55 -34.55 24.6 -34.45 L 24.6 -34.45 Q 25.2 -33.6 25.48 -32.4 Q 25.75 -31.2 25.83 -29.9 Q 25.9 -28.6 25.78 -27.3 Q 25.65 -26 25.4 -25 Z M 20.9 -3.4 L 20.9 -3.4 Q 21.05 -2.4 21.23 -1.6 Q 21.4 -0.8 21.85 -0.05 L 21.85 -0.05 Q 21.9 0 21.93 0.13 Q 21.95 0.25 21.85 0.25 L 21.85 0.25 Q 21.6 0.25 21.35 0 L 21.35 0 Q 20.8 -0.65 20.45 -1.25 Q 20.1 -1.85 19.8 -3.35 L 19.8 -3.35 Q 19.7 -3.95 19.65 -4.8 Q 19.6 -5.65 19.65 -6.45 Q 19.7 -7.25 19.83 -7.78 Q 19.95 -8.3 20.15 -8.3 L 20.15 -8.3 Q 20.2 -8.3 20.28 -8.03 Q 20.35 -7.75 20.43 -7.43 Q 20.5 -7.1 20.53 -6.78 Q 20.55 -6.45 20.55 -6.35 L 20.55 -6.35 Q 20.7 -4.8 20.9 -3.4 Z M 54.25 -26.35 L 54.25 -26.35 Q 54.5 -24.2 54.12 -22.48 Q 53.75 -20.75 53.35 -19.6 L 53.35 -19.6 Q 52.5 -17.4 51.05 -15.58 Q 49.6 -13.75 47.87 -12.4 Q 46.15 -11.05 44.3 -10.15 Q 42.45 -9.25 40.85 -8.9 L 40.85 -8.9 Q 40.45 -8.8 40.02 -8.72 Q 39.6 -8.65 39.65 -8.75 L 39.65 -8.75 Q 39.55 -8.85 39.95 -9.05 Q 40.35 -9.25 40.7 -9.4 L 40.7 -9.4 Q 43.5 -10.75 45.95 -12.6 Q 48.4 -14.45 50.15 -17.05 L 50.15 -17.05 Q 51 -18.3 51.65 -19.83 Q 52.3 -21.35 52.55 -23 Q 52.8 -24.65 52.55 -26.38 Q 52.3 -28.1 51.4 -29.75 L 51.4 -29.75 Q 50.25 -31.85 48.45 -33.18 Q 46.65 -34.5 44.5 -35.18 Q 42.35 -35.85 40.07 -35.98 Q 37.8 -36.1 35.7 -35.75 L 35.7 -35.75 Q 35.4 -35.7 35.35 -35.7 Q 35.3 -35.7 35.2 -35.75 L 35.2 -35.75 Q 35.2 -35.85 35.37 -35.9 Q 35.55 -35.95 35.7 -36.05 L 35.7 -36.05 Q 36.6 -36.45 38.07 -36.73 Q 39.55 -37 41.35 -36.9 Q 43.15 -36.8 45.17 -36.23 Q 47.2 -35.65 49.25 -34.3 L 49.25 -34.3 Q 51.3 -32.95 52.62 -30.78 Q 53.95 -28.6 54.25 -26.35 Z M 51.1 -28.45 L 51.1 -28.45 Q 51.55 -27.25 51.62 -26.05 Q 51.7 -24.85 51.52 -23.73 Q 51.35 -22.6 50.97 -21.58 Q 50.6 -20.55 50.1 -19.75 L 50.1 -19.75 Q 50 -19.65 49.85 -19.43 Q 49.7 -19.2 49.55 -18.98 Q 49.4 -18.75 49.25 -18.63 Q 49.1 -18.5 49.05 -18.55 L 49.05 -18.55 Q 49 -18.55 49.07 -18.75 Q 49.15 -18.95 49.22 -19.2 Q 49.3 -19.45 49.4 -19.65 Q 49.5 -19.85 49.55 -19.95 L 49.55 -19.95 Q 50 -20.8 50.15 -22.03 Q 50.3 -23.25 50.22 -24.55 Q 50.15 -25.85 49.82 -27.08 Q 49.5 -28.3 48.9 -29.1 L 48.9 -29.1 Q 48.7 -29.4 48.1 -30.03 Q 47.5 -30.65 46.5 -31.35 Q 45.5 -32.05 44.15 -32.65 Q 42.8 -33.25 41.1 -33.4 L 41.1 -33.4 Q 39.45 -33.55 37.77 -33.48 Q 36.1 -33.4 34.62 -33.15 Q 33.15 -32.9 32.02 -32.55 Q 30.9 -32.2 30.35 -31.9 L 30.35 -31.9 Q 30.1 -31.75 29.87 -31.7 Q 29.65 -31.65 29.65 -31.7 L 29.65 -31.7 Q 29.6 -31.8 29.75 -31.95 Q 29.9 -32.1 30 -32.2 L 30 -32.2 Q 30.8 -33 32.42 -33.7 Q 34.05 -34.4 36.02 -34.83 Q 38 -35.25 40.07 -35.27 Q 42.15 -35.3 43.8 -34.75 L 43.8 -34.75 Q 44.85 -34.4 45.97 -33.83 Q 47.1 -33.25 48.07 -32.45 Q 49.05 -31.65 49.85 -30.65 Q 50.65 -29.65 51.1 -28.45 Z M 34 -10.15 L 34 -10.15 Q 34.4 -12.4 35.07 -14.73 Q 35.75 -17.05 36.45 -19.45 L 36.45 -19.45 Q 37.15 -21.7 37.75 -24.05 Q 38.35 -26.4 38.45 -29.1 L 38.45 -29.1 Q 38.45 -29.35 38.47 -29.35 Q 38.5 -29.35 38.55 -29.35 L 38.55 -29.35 Q 38.6 -29.35 38.7 -29.05 L 38.7 -29.05 Q 39.25 -27.8 39.12 -25.73 Q 39 -23.65 38.55 -21.43 Q 38.1 -19.2 37.52 -17.13 Q 36.95 -15.05 36.65 -13.85 L 36.65 -13.85 Q 36.4 -12.95 36.2 -12.18 Q 36 -11.4 35.75 -10.55 L 35.75 -10.55 Q 37.55 -11.75 39.27 -12.98 Q 41 -14.2 42.5 -15.58 Q 44 -16.95 45.17 -18.5 Q 46.35 -20.05 47.05 -21.85 L 47.05 -21.85 Q 48.2 -24.85 46.97 -27.28 Q 45.75 -29.7 42.35 -30.75 L 42.35 -30.75 Q 39.8 -31.5 37.2 -31.5 L 37.2 -31.5 Q 37.65 -29.8 37.62 -27.8 Q 37.6 -25.8 37.2 -24.45 L 37.2 -24.45 Q 36.5 -21.8 35.5 -19.03 Q 34.5 -16.25 33.5 -13.85 L 33.5 -13.85 Q 33.45 -13.75 33.25 -13.35 Q 33.05 -12.95 32.9 -13 L 32.9 -13 Q 32.8 -13 32.85 -13.43 Q 32.9 -13.85 32.9 -13.95 L 32.9 -13.95 Q 32.95 -14.55 33.1 -15.4 Q 33.25 -16.25 33.4 -17.15 Q 33.55 -18.05 33.75 -18.93 Q 33.95 -19.8 34.2 -20.4 L 34.2 -20.4 Q 34.3 -20.75 34.6 -22 Q 34.9 -23.25 35.2 -24.9 Q 35.5 -26.55 35.75 -28.33 Q 36 -30.1 36.1 -31.5 L 36.1 -31.5 Q 35.7 -31.5 35.5 -31.45 L 35.5 -31.45 Q 35.55 -29.4 35.12 -27.28 Q 34.7 -25.15 34.05 -22.98 Q 33.4 -20.8 32.65 -18.6 Q 31.9 -16.4 31.4 -14.25 L 31.4 -14.25 Q 31 -12.6 30.8 -10.75 Q 30.6 -8.9 30.65 -7.05 Q 30.7 -5.2 31.1 -3.43 Q 31.5 -1.65 32.3 -0.15 L 32.3 -0.15 Q 32.45 0.1 32.32 0.08 Q 32.2 0.05 32.05 -0.05 L 32.05 -0.05 Q 30.7 -1.6 30.05 -3.45 Q 29.4 -5.3 29.25 -7.28 Q 29.1 -9.25 29.37 -11.3 Q 29.65 -13.35 30.1 -15.3 L 30.1 -15.3 Q 30.6 -17.4 31.25 -19.5 Q 31.9 -21.6 32.5 -23.63 Q 33.1 -25.65 33.62 -27.58 Q 34.15 -29.5 34.4 -31.35 L 34.4 -31.35 Q 32.95 -31.15 31.6 -30.78 Q 30.25 -30.4 29 -30 L 29 -30 Q 28.6 -29.9 28.55 -30 L 28.55 -30 Q 28.5 -30.1 28.67 -30.2 Q 28.85 -30.3 28.9 -30.35 L 28.9 -30.35 Q 30.3 -31.2 32.02 -31.78 Q 33.75 -32.35 35.6 -32.58 Q 37.45 -32.8 39.4 -32.68 Q 41.35 -32.55 43.25 -32 L 43.25 -32 Q 45.25 -31.4 46.55 -30.15 Q 47.85 -28.9 48.47 -27.33 Q 49.1 -25.75 49 -23.98 Q 48.9 -22.2 48.1 -20.55 L 48.1 -20.55 Q 47.05 -18.45 45.45 -16.73 Q 43.85 -15 41.87 -13.55 Q 39.9 -12.1 37.67 -10.88 Q 35.45 -9.65 33.25 -8.55 L 33.25 -8.55 Q 33.15 -8.5 32.7 -8.33 Q 32.25 -8.15 32.2 -8.25 L 32.2 -8.25 Q 32.2 -8.3 32.47 -8.53 Q 32.75 -8.75 33.05 -8.95 L 33.05 -8.95 Q 33.8 -9.35 34 -10.15 Z M 37.35 -9.55 L 37.35 -9.55 Q 38.1 -9.95 39.22 -10.6 Q 40.35 -11.25 41.4 -11.85 Q 42.45 -12.45 43.22 -12.85 Q 44 -13.25 44.05 -13.15 L 44.05 -13.15 Q 44.1 -13.1 43.87 -12.83 Q 43.65 -12.55 43.3 -12.23 Q 42.95 -11.9 42.6 -11.6 Q 42.25 -11.3 42.05 -11.15 L 42.05 -11.15 Q 41.05 -10.45 40.07 -9.9 Q 39.1 -9.35 38.1 -8.9 L 38.1 -8.9 Q 37.25 -8.5 36.37 -8.2 Q 35.5 -7.9 34.6 -7.55 L 34.6 -7.55 Q 34.35 -6.85 34.17 -6.15 Q 34 -5.45 33.85 -4.85 L 33.85 -4.85 Q 33.8 -4.6 33.72 -4.35 Q 33.65 -4.1 33.6 -4.1 L 33.6 -4.1 Q 33.5 -4.15 33.47 -4.48 Q 33.45 -4.8 33.45 -5 L 33.45 -5 Q 33.45 -5.45 33.45 -6.08 Q 33.45 -6.7 33.5 -7.15 L 33.5 -7.15 Q 33.15 -7.05 32.82 -6.85 Q 32.5 -6.65 32.55 -6.25 L 32.55 -6.25 Q 32.55 -4.75 32.7 -3.55 L 32.7 -3.55 Q 32.95 -1.85 33.6 -0.3 L 33.6 -0.3 Q 33.65 -0.2 33.72 -0.05 Q 33.8 0.1 33.75 0.15 L 33.75 0.15 Q 33.65 0.2 33.3 -0.05 L 33.3 -0.05 Q 32.75 -0.75 32.35 -1.43 Q 31.95 -2.1 31.7 -3.5 L 31.7 -3.5 Q 31.6 -3.95 31.57 -4.7 Q 31.55 -5.45 31.6 -6.1 L 31.6 -6.1 Q 31.6 -6.5 31.75 -6.8 Q 31.9 -7.1 32.4 -7.35 L 32.4 -7.35 Q 32.7 -7.5 33.42 -7.83 Q 34.15 -8.15 34.95 -8.5 Q 35.75 -8.85 36.42 -9.15 Q 37.1 -9.45 37.35 -9.55 Z M 63.85 -25.4 L 63.85 -25.4 Q 63.15 -22.7 62.12 -19.8 Q 61.1 -16.9 60 -14.3 L 60 -14.3 Q 59.95 -14.2 59.75 -13.83 Q 59.55 -13.45 59.45 -13.5 L 59.45 -13.5 Q 59.3 -13.5 59.32 -13.93 Q 59.35 -14.35 59.4 -14.5 L 59.4 -14.5 Q 59.45 -15.1 59.62 -16 Q 59.8 -16.9 59.97 -17.85 Q 60.15 -18.8 60.37 -19.7 Q 60.6 -20.6 60.8 -21.25 L 60.8 -21.25 Q 60.95 -21.7 61.35 -23.5 Q 61.75 -25.3 62.12 -27.5 Q 62.5 -29.7 62.7 -31.75 Q 62.9 -33.8 62.7 -34.75 L 62.7 -34.75 Q 62.6 -35.2 62.7 -35.2 L 62.7 -35.2 Q 62.8 -35.2 62.87 -35.08 Q 62.95 -34.95 63.05 -34.85 L 63.05 -34.85 Q 63.6 -34 63.9 -32.8 Q 64.2 -31.6 64.27 -30.28 Q 64.35 -28.95 64.22 -27.65 Q 64.1 -26.35 63.85 -25.4 Z M 61.6 -36.1 L 61.6 -36.1 Q 62.3 -33.7 62.05 -31.13 Q 61.8 -28.55 61.07 -25.85 Q 60.35 -23.15 59.45 -20.35 Q 58.55 -17.55 57.9 -14.8 L 57.9 -14.8 Q 57.3 -12.2 57.07 -9.65 Q 56.85 -7.1 57.4 -4.45 L 57.4 -4.45 Q 57.55 -4.7 57.72 -4.8 Q 57.9 -4.9 58.1 -5.05 L 58.1 -5.05 Q 58.1 -5.65 58.1 -6.28 Q 58.1 -6.9 58.15 -7.4 Q 58.2 -7.9 58.3 -8.2 Q 58.4 -8.5 58.6 -8.5 L 58.6 -8.5 Q 58.65 -8.5 58.72 -8.25 Q 58.8 -8 58.85 -7.68 Q 58.9 -7.35 58.95 -7.03 Q 59 -6.7 59 -6.6 L 59 -6.6 Q 59.05 -6.2 59.05 -6 Q 59.05 -5.8 59.15 -5.55 L 59.15 -5.55 Q 59.25 -5.6 59.47 -5.68 Q 59.7 -5.75 59.95 -5.8 L 59.95 -5.8 Q 60.2 -9.4 61.1 -12.98 Q 62 -16.55 63.1 -20.2 L 63.1 -20.2 Q 63.8 -22.55 64.42 -25.03 Q 65.05 -27.5 65.15 -30.35 L 65.15 -30.35 Q 65.15 -30.6 65.3 -30.6 L 65.3 -30.6 Q 65.35 -30.6 65.35 -30.5 Q 65.35 -30.4 65.45 -30.3 L 65.45 -30.3 Q 66 -28.95 65.85 -26.78 Q 65.7 -24.6 65.25 -22.28 Q 64.8 -19.95 64.2 -17.78 Q 63.6 -15.6 63.3 -14.3 L 63.3 -14.3 Q 62.75 -12.2 62.05 -10.03 Q 61.35 -7.85 60.7 -5.95 L 60.7 -5.95 Q 61.65 -6.1 62.72 -6.15 Q 63.8 -6.2 64.7 -6.18 Q 65.6 -6.15 66.27 -6.13 Q 66.95 -6.1 67.15 -6.1 L 67.15 -6.1 Q 68.6 -6.05 70.15 -5.75 Q 71.7 -5.45 72.85 -5.25 L 72.85 -5.25 Q 73.25 -5.15 73.25 -5.05 L 73.25 -5.05 Q 73.25 -4.95 73.1 -4.9 Q 72.95 -4.85 72.85 -4.8 L 72.85 -4.8 Q 70.65 -4.1 68.42 -4.23 Q 66.2 -4.35 63.8 -4.6 L 63.8 -4.6 Q 62.9 -4.7 61.92 -4.75 Q 60.95 -4.8 60 -4.73 Q 59.05 -4.65 58.17 -4.38 Q 57.3 -4.1 56.6 -3.5 L 56.6 -3.5 Q 55.5 -6.35 55.65 -9.5 Q 55.8 -12.65 56.55 -15.8 L 56.55 -15.8 Q 57.2 -18.55 58.05 -21.28 Q 58.9 -24 59.62 -26.58 Q 60.35 -29.15 60.82 -31.55 Q 61.3 -33.95 61.25 -36.15 L 61.25 -36.15 Q 61.35 -36.45 61.4 -36.45 L 61.4 -36.45 Q 61.45 -36.5 61.5 -36.33 Q 61.55 -36.15 61.6 -36.1 Z M 75.55 -6.25 L 75.55 -6.25 Q 75.65 -6.4 75.72 -6.23 Q 75.8 -6.05 75.7 -5.8 L 75.7 -5.8 Q 75.4 -5.05 75.12 -4.5 Q 74.85 -3.95 74.05 -3.4 L 74.05 -3.4 Q 73.7 -3.15 73.2 -2.95 Q 72.7 -2.75 72.25 -2.65 Q 71.8 -2.55 71.45 -2.55 Q 71.1 -2.55 71.1 -2.75 L 71.1 -2.75 Q 71.05 -2.9 71.52 -3.15 Q 72 -3.4 72.2 -3.5 L 72.2 -3.5 Q 72.6 -3.75 73 -3.98 Q 73.4 -4.2 73.8 -4.5 L 73.8 -4.5 Q 74.2 -4.9 74.67 -5.3 Q 75.15 -5.7 75.55 -6.25 Z M 75.8 -4.75 L 75.8 -4.75 Q 75.95 -5 75.95 -4.8 Q 75.95 -4.6 75.9 -4.5 L 75.9 -4.5 Q 75.15 -2.8 74.17 -1.9 Q 73.2 -1 72.07 -0.58 Q 70.95 -0.15 69.72 -0.08 Q 68.5 0 67.3 0 L 67.3 0 Q 63.95 -0.05 60.77 -0.28 Q 57.6 -0.5 55.05 0 L 55.05 0 Q 54.95 0 54.85 0.03 Q 54.75 0.05 54.95 -0.1 L 54.95 -0.1 Q 56.15 -1.3 57.65 -1.55 Q 59.15 -1.8 60.82 -1.63 Q 62.5 -1.45 64.25 -1.1 Q 66 -0.75 67.65 -0.7 L 67.65 -0.7 Q 69.75 -0.65 71.97 -1.58 Q 74.2 -2.5 75.8 -4.75 Z M 68.15 -2.45 L 68.15 -2.45 Q 68.15 -2.35 67.95 -2.3 Q 67.75 -2.25 67.65 -2.25 L 67.65 -2.25 Q 66.9 -2.1 65.62 -2.05 Q 64.35 -2 63.3 -2.1 L 63.3 -2.1 Q 63.05 -2.1 62.15 -2.18 Q 61.25 -2.25 60.07 -2.23 Q 58.9 -2.2 57.7 -1.95 Q 56.5 -1.7 55.65 -1.1 L 55.65 -1.1 Q 55.45 -0.9 55.35 -1.05 L 55.35 -1.05 Q 55.35 -1.1 55.42 -1.28 Q 55.5 -1.45 55.55 -1.5 L 55.55 -1.5 Q 56.25 -2.6 57.72 -3.18 Q 59.2 -3.75 60.7 -3.9 L 60.7 -3.9 Q 62.3 -4.05 64.15 -3.73 Q 66 -3.4 67.65 -2.9 L 67.65 -2.9 Q 67.7 -2.9 67.92 -2.75 Q 68.15 -2.6 68.15 -2.45 Z M 104.34 -22.45 L 104.34 -22.45 Q 104.34 -20.15 103.92 -17.57 Q 103.49 -15 102.62 -12.5 Q 101.74 -10 100.44 -7.75 Q 99.14 -5.5 97.37 -3.78 Q 95.59 -2.05 93.34 -1.03 Q 91.09 0 88.39 0 L 88.39 0 Q 85.89 0 84.07 -1.48 Q 82.24 -2.95 81.12 -5.35 Q 79.99 -7.75 79.57 -10.85 Q 79.14 -13.95 79.44 -17.15 Q 79.74 -20.35 80.72 -23.45 Q 81.69 -26.55 83.39 -28.95 Q 85.09 -31.35 87.49 -32.83 Q 89.89 -34.3 92.99 -34.3 L 92.99 -34.3 Q 95.44 -34.3 97.09 -33.2 Q 98.74 -32.1 99.77 -30.4 Q 100.79 -28.7 101.24 -26.63 Q 101.69 -24.55 101.69 -22.6 L 101.69 -22.6 Q 101.69 -20.25 101.29 -18.03 Q 100.89 -15.8 99.89 -13.7 L 99.89 -13.7 Q 99.59 -13 99.57 -13.23 Q 99.54 -13.45 99.64 -13.9 L 99.64 -13.9 Q 99.99 -15.7 100.27 -17.48 Q 100.54 -19.25 100.54 -21.1 L 100.54 -21.1 Q 100.54 -22.85 100.19 -24.9 Q 99.84 -26.95 98.99 -28.7 Q 98.14 -30.45 96.64 -31.63 Q 95.14 -32.8 92.84 -32.8 L 92.84 -32.8 Q 90.89 -32.8 89.19 -32.05 Q 87.49 -31.3 86.12 -30.05 Q 84.74 -28.8 83.69 -27.13 Q 82.64 -25.45 81.89 -23.65 L 81.89 -23.65 Q 81.29 -22.15 80.89 -19.88 Q 80.49 -17.6 80.44 -15.1 Q 80.39 -12.6 80.74 -10.05 Q 81.09 -7.5 82.04 -5.5 Q 82.99 -3.5 84.54 -2.23 Q 86.09 -0.95 88.44 -0.95 L 88.44 -0.95 Q 90.89 -0.95 93.09 -2.33 Q 95.29 -3.7 97.07 -5.78 Q 98.84 -7.85 100.09 -10.23 Q 101.34 -12.6 101.89 -14.65 L 101.89 -14.65 Q 102.39 -16.45 102.67 -18.68 Q 102.94 -20.9 102.82 -23.18 Q 102.69 -25.45 102.12 -27.6 Q 101.54 -29.75 100.39 -31.43 Q 99.24 -33.1 97.47 -34.13 Q 95.69 -35.15 93.14 -35.15 L 93.14 -35.15 Q 89.34 -35.15 86.59 -33.25 Q 83.84 -31.35 82.07 -28.45 Q 80.29 -25.55 79.44 -22.05 Q 78.59 -18.55 78.59 -15.35 L 78.59 -15.35 Q 78.59 -13.85 78.79 -12.33 Q 78.99 -10.8 79.09 -9.8 L 79.09 -9.8 Q 79.14 -9.4 79.02 -9.38 Q 78.89 -9.35 78.74 -9.75 L 78.74 -9.75 Q 78.54 -10.4 78.39 -11.28 Q 78.24 -12.15 78.12 -13.13 Q 77.99 -14.1 77.92 -15.08 Q 77.84 -16.05 77.84 -16.9 L 77.84 -16.9 Q 77.84 -20.4 78.77 -23.93 Q 79.69 -27.45 81.59 -30.25 Q 83.49 -33.05 86.42 -34.83 Q 89.34 -36.6 93.34 -36.6 L 93.34 -36.6 Q 96.34 -36.6 98.44 -35.25 Q 100.54 -33.9 101.87 -31.83 Q 103.19 -29.75 103.77 -27.25 Q 104.34 -24.75 104.34 -22.45 Z M 99.64 -22 L 99.64 -22 Q 99.64 -19.85 99.14 -17.48 Q 98.64 -15.1 97.67 -12.83 Q 96.69 -10.55 95.29 -8.58 Q 93.89 -6.6 92.09 -5.2 L 92.09 -5.2 Q 91.24 -4.55 90.27 -4.1 Q 89.29 -3.65 88.14 -3.65 L 88.14 -3.65 Q 87.14 -3.65 86.47 -4.08 Q 85.79 -4.5 85.29 -5.25 L 85.29 -5.25 Q 84.89 -5.8 85.04 -5.8 Q 85.19 -5.8 85.59 -5.4 L 85.59 -5.4 Q 86.04 -5 86.49 -4.7 Q 86.94 -4.4 87.69 -4.4 L 87.69 -4.4 Q 89.09 -4.4 90.37 -5.38 Q 91.64 -6.35 92.49 -7.35 L 92.49 -7.35 Q 93.79 -8.75 94.79 -10.48 Q 95.79 -12.2 96.47 -14.08 Q 97.14 -15.95 97.49 -17.88 Q 97.84 -19.8 97.84 -21.7 L 97.84 -21.7 Q 97.84 -22.95 97.62 -24.45 Q 97.39 -25.95 96.77 -27.28 Q 96.14 -28.6 95.07 -29.5 Q 93.99 -30.4 92.29 -30.4 L 92.29 -30.4 Q 90.44 -30.4 88.99 -29.6 Q 87.54 -28.8 86.39 -27.58 Q 85.24 -26.35 84.32 -24.83 Q 83.39 -23.3 82.59 -21.85 L 82.59 -21.85 Q 82.44 -21.55 82.37 -21.5 Q 82.29 -21.45 82.29 -21.55 L 82.29 -21.55 Q 82.24 -21.65 82.29 -21.85 L 82.29 -21.85 Q 82.84 -23.7 83.79 -25.5 Q 84.74 -27.3 86.07 -28.7 Q 87.39 -30.1 89.04 -30.98 Q 90.69 -31.85 92.64 -31.85 L 92.64 -31.85 Q 94.49 -31.85 95.84 -30.85 Q 97.19 -29.85 98.02 -28.38 Q 98.84 -26.9 99.24 -25.18 Q 99.64 -23.45 99.64 -22 Z M 90.59 -2.45 L 90.59 -2.45 Q 89.44 -1.85 88.14 -1.85 L 88.14 -1.85 Q 86.34 -1.85 85.04 -2.85 Q 83.74 -3.85 82.87 -5.3 Q 81.99 -6.75 81.59 -8.45 Q 81.19 -10.15 81.19 -11.6 L 81.19 -11.6 Q 81.19 -11.9 81.24 -12.5 Q 81.29 -13.1 81.37 -13.68 Q 81.44 -14.25 81.57 -14.7 Q 81.69 -15.15 81.89 -15.15 L 81.89 -15.15 Q 82.09 -15.15 82.07 -14.38 Q 82.04 -13.6 82.14 -12.2 L 82.14 -12.2 Q 82.19 -11.1 82.59 -9.45 Q 82.99 -7.8 83.74 -6.28 Q 84.49 -4.75 85.59 -3.65 Q 86.69 -2.55 88.14 -2.55 L 88.14 -2.55 Q 89.39 -2.55 90.39 -2.75 L 90.39 -2.75 Q 90.89 -2.85 91.14 -2.85 Q 91.39 -2.85 90.59 -2.45 Z M 121.29 -35.8 L 121.29 -35.8 Q 121.19 -35.95 121.02 -36.27 Q 120.84 -36.6 120.94 -36.7 L 120.94 -36.7 Q 121.04 -36.8 121.27 -36.65 Q 121.49 -36.5 121.54 -36.45 L 121.54 -36.45 Q 122.44 -35.8 123.22 -34.65 Q 123.99 -33.5 124.62 -32.13 Q 125.24 -30.75 125.74 -29.25 Q 126.24 -27.75 126.54 -26.4 L 126.54 -26.4 Q 127.29 -23.1 127.82 -19.9 Q 128.34 -16.7 128.34 -13.3 L 128.34 -13.3 Q 128.34 -13.2 128.37 -12.7 Q 128.39 -12.2 128.19 -12.1 L 128.19 -12.1 Q 128.04 -12.2 127.87 -12.6 Q 127.69 -13 127.64 -13.15 L 127.64 -13.15 Q 127.04 -15 126.57 -17.38 Q 126.09 -19.75 125.69 -21.7 L 125.69 -21.7 Q 125.39 -23.2 125.14 -24.58 Q 124.89 -25.95 124.57 -27.25 Q 124.24 -28.55 123.82 -29.88 Q 123.39 -31.2 122.79 -32.65 L 122.79 -32.65 Q 122.69 -32.85 122.47 -33.35 Q 122.24 -33.85 121.99 -34.35 Q 121.74 -34.85 121.54 -35.27 Q 121.34 -35.7 121.29 -35.8 Z M 133.29 1.25 L 133.29 1.25 Q 132.74 0.95 132.54 0.88 Q 132.34 0.8 131.79 0.45 L 131.79 0.45 Q 130.59 -0.25 129.59 -1.38 Q 128.59 -2.5 127.79 -3.85 Q 126.99 -5.2 126.37 -6.73 Q 125.74 -8.25 125.29 -9.75 L 125.29 -9.75 Q 124.29 -9.1 122.92 -8.97 Q 121.54 -8.85 120.39 -8.85 L 120.39 -8.85 Q 118.94 -8.85 117.52 -8.95 Q 116.09 -9.05 114.64 -9.05 L 114.64 -9.05 Q 113.24 -6.45 112.02 -4.03 Q 110.79 -1.6 110.09 0.5 L 110.09 0.5 Q 110.09 0.55 110.04 0.73 Q 109.99 0.9 109.89 0.9 L 109.89 0.9 Q 109.74 0.9 109.74 0.55 Q 109.74 0.2 109.74 0.1 L 109.74 0.1 Q 109.74 -1.9 110.72 -4.38 Q 111.69 -6.85 112.89 -9.25 L 112.89 -9.25 L 112.14 -9.3 Q 111.84 -8.6 111.32 -7.35 Q 110.79 -6.1 110.32 -4.75 Q 109.84 -3.4 109.47 -2.15 Q 109.09 -0.9 109.09 -0.15 L 109.09 -0.15 Q 109.09 0 108.94 0 L 108.94 0 Q 108.74 0 108.64 -0.33 Q 108.54 -0.65 108.47 -1.05 Q 108.39 -1.45 108.37 -1.88 Q 108.34 -2.3 108.34 -2.45 L 108.34 -2.45 Q 108.34 -4.2 108.79 -6.13 Q 109.24 -8.05 109.99 -9.65 L 109.99 -9.65 L 109.34 -9.75 Q 108.89 -8.65 108.49 -7.58 Q 108.09 -6.5 107.79 -5.35 L 107.79 -5.35 Q 107.79 -5.25 107.74 -5.1 Q 107.69 -4.95 107.59 -5 L 107.59 -5 Q 107.49 -5.2 107.47 -5.48 Q 107.44 -5.75 107.44 -5.95 L 107.44 -5.95 Q 107.44 -8.05 108.19 -10 L 108.19 -10 Q 108.44 -10.5 108.69 -10.5 L 108.69 -10.5 Q 109.74 -10.8 110.82 -10.85 Q 111.89 -10.9 113.04 -10.9 L 113.04 -10.9 Q 115.54 -10.9 117.99 -10.53 Q 120.44 -10.15 122.89 -10.15 L 122.89 -10.15 Q 124.09 -10.15 125.09 -10.35 L 125.09 -10.35 L 124.99 -11.15 Q 124.44 -11 123.82 -10.95 Q 123.19 -10.9 122.64 -10.9 L 122.64 -10.9 Q 120.69 -10.9 118.62 -11.3 Q 116.54 -11.7 114.64 -12.25 L 114.64 -12.25 Q 114.54 -12.35 114.24 -12.43 Q 113.94 -12.5 113.94 -12.65 L 113.94 -12.65 Q 113.94 -12.75 114.24 -12.83 Q 114.54 -12.9 114.64 -12.9 L 114.64 -12.9 Q 115.34 -12.95 116.02 -12.98 Q 116.69 -13 117.39 -13 L 117.39 -13 Q 118.54 -13 119.69 -12.98 Q 120.84 -12.95 122.04 -12.95 L 122.04 -12.95 Q 122.64 -12.95 123.29 -12.95 Q 123.94 -12.95 124.54 -13 L 124.54 -13 L 124.44 -13.55 L 123.79 -13.55 Q 121.39 -13.55 119.02 -14 Q 116.64 -14.45 114.24 -14.45 L 114.24 -14.45 Q 112.19 -14.45 110.62 -13.95 Q 109.04 -13.45 107.92 -12.8 Q 106.79 -12.15 106.09 -11.5 Q 105.39 -10.85 105.09 -10.55 L 105.09 -10.55 Q 104.99 -10.5 104.99 -10.5 L 104.99 -10.5 Q 104.94 -10.5 104.94 -10.6 L 104.94 -10.6 Q 104.94 -10.65 104.99 -10.7 L 104.99 -10.7 Q 105.89 -12.45 107.19 -13.63 Q 108.49 -14.8 110.39 -15.4 L 110.39 -15.4 Q 112.29 -19.45 114.32 -23.45 Q 116.34 -27.45 118.59 -31.35 L 118.59 -31.35 Q 118.64 -31.45 118.79 -31.68 Q 118.94 -31.9 119.09 -31.9 L 119.09 -31.9 Q 119.14 -31.85 119.14 -31.8 L 119.14 -31.8 L 119.14 -31.7 Q 119.14 -31.3 119.09 -31.1 L 119.09 -31.1 Q 118.14 -27.05 116.29 -23.3 Q 114.44 -19.55 112.49 -15.9 L 112.49 -15.9 L 113.44 -15.95 Q 113.59 -16.25 114.22 -17.25 Q 114.84 -18.25 115.57 -19.33 Q 116.29 -20.4 116.89 -21.28 Q 117.49 -22.15 117.64 -22.15 L 117.64 -22.15 L 117.69 -22 Q 117.69 -21.75 117.39 -20.9 Q 117.09 -20.05 116.69 -19.05 Q 116.29 -18.05 115.92 -17.18 Q 115.54 -16.3 115.39 -15.95 L 115.39 -15.95 Q 115.69 -15.95 115.99 -15.93 Q 116.29 -15.9 116.59 -15.9 L 116.59 -15.9 Q 117.49 -17.7 118.52 -19.68 Q 119.54 -21.65 120.29 -23.7 Q 121.04 -25.75 121.32 -27.85 Q 121.59 -29.95 120.99 -32 L 120.99 -32 Q 120.99 -31.75 120.87 -31 Q 120.74 -30.25 120.54 -29.43 Q 120.34 -28.6 120.14 -27.98 Q 119.94 -27.35 119.74 -27.35 L 119.74 -27.35 Q 119.59 -27.35 119.62 -27.55 Q 119.64 -27.75 119.64 -27.8 L 119.64 -27.8 Q 119.64 -29.1 119.82 -30.38 Q 119.99 -31.65 119.99 -32.95 L 119.99 -32.95 Q 119.99 -34.7 119.44 -36.35 L 119.44 -36.35 Q 119.44 -36.4 119.29 -36.77 Q 119.14 -37.15 119.39 -37.15 L 119.39 -37.15 Q 119.49 -37.15 119.74 -36.9 L 119.74 -36.9 Q 120.24 -36.4 120.72 -35.55 Q 121.19 -34.7 121.59 -33.73 Q 121.99 -32.75 122.34 -31.8 Q 122.69 -30.85 122.89 -30.2 L 122.89 -30.2 Q 123.54 -28.05 123.97 -25.88 Q 124.39 -23.7 124.72 -21.53 Q 125.04 -19.35 125.39 -17.15 Q 125.74 -14.95 126.19 -12.8 L 126.19 -12.8 Q 126.64 -10.7 127.27 -8.7 Q 127.89 -6.7 128.79 -4.9 Q 129.69 -3.1 130.87 -1.58 Q 132.04 -0.05 133.59 1.1 L 133.59 1.1 Q 133.84 1.35 133.77 1.43 Q 133.69 1.5 133.29 1.25 Z M 133.04 -3.6 L 133.19 -3 Q 133.24 -2.7 133.14 -2.73 Q 133.04 -2.75 132.92 -2.9 Q 132.79 -3.05 132.67 -3.25 Q 132.54 -3.45 132.54 -3.5 L 132.54 -3.5 Q 131.34 -5.7 130.64 -7.98 Q 129.94 -10.25 129.54 -12.58 Q 129.14 -14.9 128.87 -17.28 Q 128.59 -19.65 128.22 -22.13 Q 127.84 -24.6 127.24 -27.15 Q 126.64 -29.7 125.54 -32.35 L 125.54 -32.35 Q 125.49 -32.45 125.39 -32.7 Q 125.29 -32.95 125.39 -33 L 125.39 -33 Q 125.49 -33 125.64 -32.85 L 125.64 -32.85 L 125.84 -32.65 Q 126.94 -31.35 127.79 -29.2 Q 128.64 -27.05 129.29 -24.6 Q 129.94 -22.15 130.37 -19.75 Q 130.79 -17.35 131.04 -15.55 L 131.04 -15.55 Q 131.44 -12.7 131.89 -9.55 Q 132.34 -6.4 133.04 -3.6 L 133.04 -3.6 Z M 118.34 -15.7 L 118.34 -15.7 Q 119.79 -15.55 121.22 -15.35 Q 122.64 -15.15 124.09 -15.05 L 124.09 -15.05 Q 123.54 -17.7 123.14 -20.3 Q 122.74 -22.9 122.39 -25.6 L 122.39 -25.6 Q 121.74 -23 120.62 -20.55 Q 119.49 -18.1 118.34 -15.7 Z M 134.79 0.7 L 134.79 0.7 Q 133.79 0.25 133.04 -0.18 Q 132.29 -0.6 131.74 -1.35 L 131.74 -1.35 Q 130.89 -2.5 130.42 -3.65 Q 129.94 -4.8 129.64 -5.8 L 129.64 -5.8 Q 129.54 -6.2 129.47 -6.7 Q 129.39 -7.2 129.49 -7.2 L 129.49 -7.2 Q 129.69 -7.2 129.99 -6.55 Q 130.29 -5.9 130.54 -5.45 L 130.54 -5.45 Q 131.29 -3.9 132.44 -2.33 Q 133.59 -0.75 134.94 0.25 L 134.94 0.25 Q 135.34 0.6 135.19 0.7 Q 135.04 0.8 134.79 0.7 Z M 105.24 -8.9 L 105.24 -8.9 Q 105.24 -8.9 105.14 -8.9 L 105.14 -8.9 L 105.09 -8.9 Q 105.09 -9.05 105.14 -9.2 Q 105.19 -9.35 105.24 -9.5 L 105.24 -9.5 Q 105.64 -10.35 106.02 -10.78 Q 106.39 -11.2 107.24 -11.7 L 107.24 -11.7 Q 107.74 -12 108.64 -12.3 Q 109.54 -12.6 110.09 -12.6 L 110.09 -12.6 Q 110.19 -12.6 110.37 -12.58 Q 110.54 -12.55 110.54 -12.4 L 110.54 -12.4 Q 110.54 -12.25 110.02 -12 Q 109.49 -11.75 109.34 -11.65 L 109.34 -11.65 Q 107.44 -10.5 106.54 -9.9 Q 105.64 -9.3 105.24 -8.9 Z M 159.79 -17.4 L 159.79 -17.4 Q 159.74 -17.25 159.61 -17 Q 159.49 -16.75 159.34 -16.48 Q 159.19 -16.2 159.04 -16.03 Q 158.89 -15.85 158.84 -15.9 L 158.84 -15.9 Q 158.84 -15.9 158.89 -16.15 Q 158.94 -16.4 159.01 -16.7 Q 159.09 -17 159.16 -17.28 Q 159.24 -17.55 159.24 -17.65 L 159.24 -17.65 Q 159.99 -21.65 159.24 -24.55 Q 158.49 -27.45 156.71 -29.3 Q 154.94 -31.15 152.36 -32.05 Q 149.79 -32.95 146.94 -33 L 146.94 -33 Q 144.89 -33 142.91 -32.68 Q 140.94 -32.35 139.31 -31.85 Q 137.69 -31.35 136.56 -30.75 Q 135.44 -30.15 135.14 -29.6 L 135.14 -29.6 Q 134.79 -29 134.94 -29.75 L 134.94 -29.75 Q 135.34 -31.05 137.06 -32.15 Q 138.79 -33.25 141.09 -33.95 Q 143.39 -34.65 145.91 -34.88 Q 148.44 -35.1 150.49 -34.6 L 150.49 -34.6 Q 151.84 -34.3 153.19 -33.75 Q 154.54 -33.2 155.76 -32.43 Q 156.99 -31.65 158.01 -30.58 Q 159.04 -29.5 159.74 -28.1 L 159.74 -28.1 Q 161.09 -25.4 161.06 -22.53 Q 161.04 -19.65 159.79 -17.4 Z M 163.04 -17.75 L 163.04 -17.75 Q 162.09 -14.95 160.51 -12.7 Q 158.94 -10.45 157.14 -8.68 Q 155.34 -6.9 153.44 -5.6 Q 151.54 -4.3 149.89 -3.4 L 149.89 -3.4 Q 149.39 -3.15 149.04 -3 Q 148.69 -2.85 148.69 -2.95 L 148.69 -2.95 Q 148.59 -3 148.96 -3.28 Q 149.34 -3.55 149.74 -3.85 L 149.74 -3.85 Q 152.54 -6.1 155.16 -8.6 Q 157.79 -11.1 159.89 -14.3 L 159.89 -14.3 Q 160.94 -15.95 161.49 -17.93 Q 162.04 -19.9 162.04 -22 Q 162.04 -24.1 161.46 -26.15 Q 160.89 -28.2 159.69 -29.95 L 159.69 -29.95 Q 158.09 -32.25 155.81 -33.6 Q 153.54 -34.95 150.94 -35.48 Q 148.34 -36 145.59 -35.8 Q 142.84 -35.6 140.29 -34.85 L 140.29 -34.85 Q 139.89 -34.75 139.81 -34.7 Q 139.74 -34.65 139.69 -34.75 L 139.69 -34.75 Q 139.64 -34.85 139.84 -34.95 Q 140.04 -35.05 140.19 -35.15 L 140.19 -35.15 Q 141.29 -35.75 143.04 -36.25 Q 144.79 -36.75 146.99 -36.85 Q 149.19 -36.95 151.69 -36.48 Q 154.19 -36 156.74 -34.65 L 156.74 -34.65 Q 159.49 -33.15 161.01 -30.85 Q 162.54 -28.55 163.14 -26.13 Q 163.74 -23.7 163.64 -21.43 Q 163.54 -19.15 163.04 -17.75 Z M 141.29 -0.6 L 141.29 -0.6 Q 141.04 -1 140.66 -1.88 Q 140.29 -2.75 140.09 -3.95 L 140.09 -3.95 Q 139.99 -4.55 139.96 -5.3 Q 139.94 -6.05 139.99 -6.73 Q 140.04 -7.4 140.14 -7.85 Q 140.24 -8.3 140.44 -8.3 L 140.44 -8.3 Q 140.49 -8.3 140.56 -8.03 Q 140.64 -7.75 140.71 -7.4 Q 140.79 -7.05 140.81 -6.73 Q 140.84 -6.4 140.84 -6.25 L 140.84 -6.25 Q 140.94 -4.95 141.16 -3.65 Q 141.39 -2.35 141.84 -1.15 L 141.84 -1.15 Q 143.59 -3.3 145.84 -5.5 Q 148.09 -7.7 150.24 -9.98 Q 152.39 -12.25 154.16 -14.65 Q 155.94 -17.05 156.74 -19.6 L 156.74 -19.6 Q 157.29 -21.35 156.96 -23.25 Q 156.64 -25.15 155.69 -26.7 L 155.69 -26.7 Q 154.74 -28.2 152.99 -29.2 Q 151.24 -30.2 149.14 -30.6 L 149.14 -30.6 Q 148.29 -30.75 147.46 -30.85 Q 146.64 -30.95 145.74 -30.95 L 145.74 -30.95 Q 145.89 -30.2 145.91 -29.33 Q 145.94 -28.45 145.89 -27.6 Q 145.84 -26.75 145.74 -25.98 Q 145.64 -25.2 145.49 -24.6 L 145.49 -24.6 Q 144.79 -21.9 143.84 -19.18 Q 142.89 -16.45 141.84 -13.95 L 141.84 -13.95 Q 141.74 -13.8 141.56 -13.48 Q 141.39 -13.15 141.29 -13.15 L 141.29 -13.15 Q 141.19 -13.15 141.19 -13.55 Q 141.19 -13.95 141.24 -14.1 L 141.24 -14.1 Q 141.29 -14.7 141.44 -15.58 Q 141.59 -16.45 141.76 -17.35 Q 141.94 -18.25 142.14 -19.13 Q 142.34 -20 142.54 -20.6 L 142.54 -20.6 Q 142.64 -20.9 142.91 -22.05 Q 143.19 -23.2 143.49 -24.7 Q 143.79 -26.2 144.06 -27.88 Q 144.34 -29.55 144.44 -30.95 L 144.44 -30.95 L 143.84 -30.95 Q 143.74 -29 143.29 -26.95 Q 142.84 -24.9 142.21 -22.83 Q 141.59 -20.75 140.91 -18.65 Q 140.24 -16.55 139.74 -14.45 L 139.74 -14.45 Q 139.64 -14 139.46 -12.9 Q 139.29 -11.8 139.19 -10.43 Q 139.09 -9.05 139.09 -7.53 Q 139.09 -6 139.31 -4.63 Q 139.54 -3.25 139.99 -2.15 Q 140.44 -1.05 141.29 -0.6 Z M 157.89 -18.15 L 157.89 -18.15 Q 156.79 -15.55 154.86 -13.15 Q 152.94 -10.75 150.69 -8.53 Q 148.44 -6.3 146.06 -4.3 Q 143.69 -2.3 141.74 -0.5 L 141.74 -0.5 Q 141.34 -0.15 140.71 -0.43 Q 140.09 -0.7 139.79 -1.1 L 139.79 -1.1 Q 138.74 -2.5 138.24 -4.25 Q 137.74 -6 137.64 -7.88 Q 137.54 -9.75 137.76 -11.68 Q 137.99 -13.6 138.44 -15.4 L 138.44 -15.4 Q 139.44 -19.55 140.71 -23.43 Q 141.99 -27.3 142.59 -30.8 L 142.59 -30.8 Q 139.89 -30.5 137.76 -29.58 Q 135.64 -28.65 134.94 -27.35 L 134.94 -27.35 Q 134.94 -27.25 134.86 -27.25 Q 134.79 -27.25 134.89 -27.65 L 134.89 -27.65 Q 135.29 -29.05 136.84 -30.08 Q 138.39 -31.1 140.54 -31.68 Q 142.69 -32.25 145.16 -32.35 Q 147.64 -32.45 149.99 -32.05 L 149.99 -32.05 Q 152.54 -31.6 154.41 -30.13 Q 156.29 -28.65 157.36 -26.68 Q 158.44 -24.7 158.61 -22.45 Q 158.79 -20.2 157.89 -18.15 Z M 147.14 -29.5 L 147.14 -29.5 Q 147.74 -28.2 147.61 -26.1 Q 147.49 -24 147.04 -21.73 Q 146.59 -19.45 146.01 -17.35 Q 145.44 -15.25 145.14 -13.95 L 145.14 -13.95 Q 144.54 -11.55 143.69 -9.15 Q 142.84 -6.75 142.29 -4.95 L 142.29 -4.95 Q 142.04 -4.25 141.94 -4.25 L 141.94 -4.25 Q 141.79 -4.25 141.79 -4.53 Q 141.79 -4.8 141.79 -5.05 L 141.79 -5.05 Q 141.94 -8.75 142.86 -12.35 Q 143.79 -15.95 144.89 -19.65 L 144.89 -19.65 Q 145.54 -21.9 146.14 -24.35 Q 146.74 -26.8 146.84 -29.5 L 146.84 -29.5 Q 146.84 -29.85 146.94 -29.9 L 146.94 -29.9 Q 146.99 -29.9 147.04 -29.75 Q 147.09 -29.6 147.14 -29.5 Z M 153.09 -8.75 L 153.09 -8.75 Q 153.14 -8.7 152.89 -8.35 Q 152.64 -8 152.26 -7.58 Q 151.89 -7.15 151.51 -6.73 Q 151.14 -6.3 150.99 -6.15 L 150.99 -6.15 Q 149.94 -5.1 148.86 -4.03 Q 147.79 -2.95 146.64 -2.2 L 146.64 -2.2 L 142.14 0.65 Q 142.04 0.7 141.86 0.75 Q 141.69 0.8 141.59 0.75 L 141.59 0.75 Q 141.49 0.7 141.51 0.6 Q 141.54 0.5 141.59 0.4 L 141.59 0.4 Q 141.64 0.3 141.74 0.2 L 141.74 0.2 Q 142.59 -0.4 143.66 -1.3 Q 144.74 -2.2 145.89 -3.15 L 145.89 -3.15 Q 146.74 -3.8 147.91 -4.8 Q 149.09 -5.8 150.21 -6.7 Q 151.34 -7.6 152.16 -8.22 Q 152.99 -8.85 153.09 -8.75 Z" stroke-linecap="round" />
</g>
<g transform="matrix(0.87 0 0 0.87 566.26 1022.37)"  >
<path style="stroke: none; stroke-width: 1; stroke-dasharray: none; stroke-linecap: butt; stroke-dashoffset: 0; stroke-linejoin: miter; stroke-miterlimit: 4; fill: rgb(255,255,255); fill-rule: nonzero; opacity: 1;" vector-effect="non-scaling-stroke"  transform=" translate(-221.5, 18.02)" d="M 24.1 -9.4 L 24.1 -9.4 Q 24.1 -6.88 22.74 -4.54 Q 21.39 -2.2 18.47 -0.7 Q 15.55 0.81 10.84 0.81 L 10.84 0.81 Q 8.15 0.81 6.15 0.34 Q 4.15 -0.12 3.05 -0.59 Q 1.95 -1.05 1.95 -1.05 L 1.95 -1.05 L 1.95 -9.91 L 5.1 -9.91 L 5.76 -4.25 Q 5.81 -3.96 6.08 -3.61 Q 6.35 -3.27 6.59 -3.15 L 6.59 -3.15 Q 6.71 -3.13 8.02 -2.56 Q 9.33 -2 11.65 -2 L 11.65 -2 Q 14.84 -2 16.92 -3.56 Q 18.99 -5.13 18.99 -7.91 L 18.99 -7.91 Q 18.99 -9.42 18.15 -10.56 Q 17.31 -11.69 15.97 -12.57 Q 14.62 -13.45 13.1 -14.17 Q 11.57 -14.89 10.21 -15.55 L 10.21 -15.55 Q 8.15 -16.53 6.4 -17.64 Q 4.64 -18.75 3.56 -20.39 Q 2.49 -22.02 2.49 -24.56 L 2.49 -24.56 Q 2.49 -27.54 4 -29.74 Q 5.52 -31.93 8.13 -33.14 Q 10.74 -34.35 14.04 -34.35 L 14.04 -34.35 Q 16.72 -34.35 18.77 -33.83 Q 20.83 -33.3 22.41 -32.79 L 22.41 -32.79 L 22.85 -32.64 L 22.85 -24.85 L 20 -24.85 L 19.24 -29.64 Q 19.19 -29.98 18.93 -30.14 Q 18.68 -30.3 18.46 -30.52 L 18.46 -30.52 Q 18.26 -30.66 17.25 -31.15 Q 16.24 -31.64 14.11 -31.64 L 14.11 -31.64 Q 11.11 -31.64 9.38 -29.97 Q 7.64 -28.3 7.64 -25.76 L 7.64 -25.76 Q 7.64 -23.46 9.44 -21.95 Q 11.23 -20.43 14.6 -19.14 L 14.6 -19.14 Q 19.14 -17.43 21.62 -15.3 Q 24.1 -13.16 24.1 -9.4 Z M 53.59 -1.95 L 53.59 0 L 42.46 0 L 42.46 -1.95 L 44.51 -2.1 Q 44.95 -2.15 45.28 -2.44 Q 45.61 -2.73 45.61 -3.2 L 45.61 -3.2 L 45.61 -16.09 Q 45.61 -18.24 44.58 -19.64 Q 43.55 -21.04 40.65 -21.04 L 40.65 -21.04 Q 39.33 -21.04 37.81 -20.63 Q 36.28 -20.21 35.21 -19.6 L 35.21 -19.6 L 35.21 -3.2 Q 35.21 -2.17 36.21 -2.1 L 36.21 -2.1 L 38.35 -1.95 L 38.35 0 L 27.1 0 L 27.1 -1.95 L 29.49 -2.1 Q 30.54 -2.17 30.54 -3.2 L 30.54 -3.2 L 30.54 -33.25 L 26.81 -33.25 L 26.81 -34.91 L 33.2 -36.84 L 35.21 -36.84 L 35.21 -21.61 Q 36.11 -22.17 37.55 -22.89 Q 38.99 -23.61 40.58 -24.16 Q 42.16 -24.71 43.46 -24.71 L 43.46 -24.71 Q 46.34 -24.71 48.29 -22.85 Q 50.24 -21 50.24 -17.14 L 50.24 -17.14 L 50.24 -3.2 Q 50.24 -2.73 50.57 -2.44 Q 50.9 -2.15 51.34 -2.1 L 51.34 -2.1 L 53.59 -1.95 Z M 79.37 -1.95 L 79.37 0 L 71.97 0 L 71.31 -2.95 Q 71.31 -2.95 70.57 -2.42 Q 69.82 -1.88 68.6 -1.17 Q 67.38 -0.46 65.91 0.07 Q 64.43 0.61 62.96 0.61 L 62.96 0.61 Q 60.25 0.61 58.36 -1.2 Q 56.47 -3 56.47 -6.15 L 56.47 -6.15 Q 56.47 -7.54 56.97 -8.74 Q 57.47 -9.94 58.97 -11.02 Q 60.47 -12.11 63.44 -13.15 Q 66.41 -14.18 71.31 -15.26 L 71.31 -15.26 L 71.31 -17.41 Q 71.31 -22.34 66.65 -22.34 L 66.65 -22.34 Q 65.36 -22.34 64.42 -22.09 Q 63.48 -21.85 63.11 -21.7 L 63.11 -21.7 L 63.11 -17.36 L 59.47 -17.36 Q 58.79 -17.36 58.2 -17.61 Q 57.62 -17.87 57.62 -18.8 L 57.62 -18.8 Q 57.62 -20.85 59.18 -22.16 Q 60.74 -23.46 63.15 -24.08 Q 65.55 -24.71 68.02 -24.71 L 68.02 -24.71 Q 71.12 -24.71 72.83 -23.74 Q 74.54 -22.78 75.22 -21.08 Q 75.9 -19.38 75.9 -17.21 L 75.9 -17.21 L 75.9 -3.2 Q 75.9 -2.73 76.21 -2.44 Q 76.51 -2.15 76.95 -2.1 L 76.95 -2.1 L 79.37 -1.95 Z M 71.31 -4.71 L 71.31 -4.71 L 71.31 -13.35 Q 67.94 -12.52 65.95 -11.68 Q 63.96 -10.84 62.99 -10 Q 62.01 -9.16 61.71 -8.29 Q 61.4 -7.42 61.4 -6.49 L 61.4 -6.49 Q 61.4 -4.96 62.39 -3.65 Q 63.38 -2.34 65.16 -2.34 L 65.16 -2.34 Q 66.16 -2.34 67.24 -2.7 Q 68.31 -3.05 69.24 -3.53 Q 70.17 -4 70.74 -4.36 Q 71.31 -4.71 71.31 -4.71 Z M 99.24 -23.95 L 99.24 -18.99 L 97.29 -18.99 Q 96.83 -19.56 96.18 -19.96 Q 95.53 -20.36 94.6 -20.36 L 94.6 -20.36 Q 93.41 -20.36 92.15 -19.53 Q 90.89 -18.7 89.6 -17.26 L 89.6 -17.26 L 89.6 -3.2 Q 89.6 -2.15 90.65 -2.1 L 90.65 -2.1 L 93.95 -1.95 L 93.95 0 L 81.45 0 L 81.45 -1.9 L 83.91 -2.1 Q 84.35 -2.15 84.66 -2.44 Q 84.96 -2.73 84.96 -3.2 L 84.96 -3.2 L 84.96 -20.56 L 81.35 -20.56 L 81.35 -22.19 L 87.55 -24.1 L 89.6 -24.1 L 89.6 -19.65 Q 90.33 -20.46 91.43 -21.66 Q 92.53 -22.85 93.77 -23.78 Q 95.02 -24.71 96.19 -24.71 L 96.19 -24.71 Q 96.97 -24.71 97.88 -24.46 Q 98.78 -24.22 99.24 -23.95 L 99.24 -23.95 Z M 122.56 -5.54 L 122.56 -2.49 Q 120.46 -1.2 118.03 -0.29 Q 115.6 0.61 113.06 0.61 L 113.06 0.61 Q 110.03 0.61 107.39 -0.74 Q 104.74 -2.1 103.1 -4.86 Q 101.46 -7.62 101.46 -11.79 L 101.46 -11.79 Q 101.46 -15.7 102.98 -18.6 Q 104.49 -21.51 107.15 -23.11 Q 109.81 -24.71 113.21 -24.71 L 113.21 -24.71 Q 117.87 -24.71 120.21 -21.81 Q 122.56 -18.92 122.56 -14.45 L 122.56 -14.45 Q 122.56 -14.21 122.56 -13.81 Q 122.56 -13.4 122.51 -13.06 L 122.51 -13.06 L 106.3 -13.06 Q 106.3 -11.16 106.7 -9.27 Q 107.1 -7.37 108.06 -5.83 Q 109.01 -4.3 110.62 -3.37 Q 112.23 -2.44 114.65 -2.44 L 114.65 -2.44 Q 116.8 -2.44 118.84 -3.43 Q 120.87 -4.42 122.56 -5.54 L 122.56 -5.54 Z M 106.57 -15.31 L 117.55 -15.31 L 117.55 -16.41 Q 117.55 -18.87 116.37 -20.56 Q 115.19 -22.24 112.7 -22.24 L 112.7 -22.24 Q 110.23 -22.24 108.5 -20.39 Q 106.76 -18.53 106.57 -15.31 L 106.57 -15.31 Z M 163.43 -3.05 L 163.43 -3.05 L 163.43 -1.05 Q 163.43 -1.05 162.49 -0.63 Q 161.55 -0.22 160.02 0.2 Q 158.5 0.61 156.69 0.61 L 156.69 0.61 Q 153.88 0.61 152.6 -0.72 Q 151.32 -2.05 151.32 -5 L 151.32 -5 L 151.32 -21.61 L 148.12 -21.61 L 148.12 -23.24 L 151.54 -24.85 L 153.78 -30.15 L 155.98 -30.15 L 155.98 -24.1 L 163.04 -24.1 L 163.04 -21.61 L 155.98 -21.61 L 155.98 -7.64 Q 155.98 -4.66 156.98 -3.43 Q 157.98 -2.2 159.99 -2.2 L 159.99 -2.2 Q 161.45 -2.2 162.44 -2.62 Q 163.43 -3.05 163.43 -3.05 Z M 191.31 -1.95 L 191.31 0 L 180.18 0 L 180.18 -1.95 L 182.23 -2.1 Q 182.67 -2.15 183 -2.44 Q 183.33 -2.73 183.33 -3.2 L 183.33 -3.2 L 183.33 -16.09 Q 183.33 -18.24 182.3 -19.64 Q 181.27 -21.04 178.37 -21.04 L 178.37 -21.04 Q 177.05 -21.04 175.52 -20.63 Q 174 -20.21 172.92 -19.6 L 172.92 -19.6 L 172.92 -3.2 Q 172.92 -2.17 173.93 -2.1 L 173.93 -2.1 L 176.07 -1.95 L 176.07 0 L 164.82 0 L 164.82 -1.95 L 167.21 -2.1 Q 168.26 -2.17 168.26 -3.2 L 168.26 -3.2 L 168.26 -33.25 L 164.53 -33.25 L 164.53 -34.91 L 170.92 -36.84 L 172.92 -36.84 L 172.92 -21.61 Q 173.83 -22.17 175.27 -22.89 Q 176.71 -23.61 178.3 -24.16 Q 179.88 -24.71 181.18 -24.71 L 181.18 -24.71 Q 184.06 -24.71 186.01 -22.85 Q 187.96 -21 187.96 -17.14 L 187.96 -17.14 L 187.96 -3.2 Q 187.96 -2.73 188.29 -2.44 Q 188.62 -2.15 189.06 -2.1 L 189.06 -2.1 L 191.31 -1.95 Z M 215.28 -5.54 L 215.28 -2.49 Q 213.18 -1.2 210.75 -0.29 Q 208.33 0.61 205.79 0.61 L 205.79 0.61 Q 202.76 0.61 200.11 -0.74 Q 197.46 -2.1 195.83 -4.86 Q 194.19 -7.62 194.19 -11.79 L 194.19 -11.79 Q 194.19 -15.7 195.7 -18.6 Q 197.22 -21.51 199.88 -23.11 Q 202.54 -24.71 205.93 -24.71 L 205.93 -24.71 Q 210.6 -24.71 212.94 -21.81 Q 215.28 -18.92 215.28 -14.45 L 215.28 -14.45 Q 215.28 -14.21 215.28 -13.81 Q 215.28 -13.4 215.23 -13.06 L 215.23 -13.06 L 199.02 -13.06 Q 199.02 -11.16 199.43 -9.27 Q 199.83 -7.37 200.78 -5.83 Q 201.73 -4.3 203.34 -3.37 Q 204.96 -2.44 207.37 -2.44 L 207.37 -2.44 Q 209.52 -2.44 211.56 -3.43 Q 213.6 -4.42 215.28 -5.54 L 215.28 -5.54 Z M 199.29 -15.31 L 210.28 -15.31 L 210.28 -16.41 Q 210.28 -18.87 209.09 -20.56 Q 207.91 -22.24 205.42 -22.24 L 205.42 -22.24 Q 202.95 -22.24 201.22 -20.39 Q 199.49 -18.53 199.29 -15.31 L 199.29 -15.31 Z M 281.76 -2.15 L 281.76 0 L 269.14 0 L 269.14 -2.15 L 271.8 -2.34 Q 272.34 -2.39 272.62 -2.73 Q 272.9 -3.08 272.9 -3.44 L 272.9 -3.44 L 272.9 -31.01 L 261.4 0 L 258.91 0 L 247.8 -30.54 L 247.8 -3.44 Q 247.8 -3.08 248.08 -2.73 Q 248.36 -2.39 248.9 -2.34 L 248.9 -2.34 L 251.76 -2.15 L 251.76 0 L 240.94 0 L 240.94 -2.15 L 243.8 -2.34 Q 244.34 -2.39 244.59 -2.73 Q 244.85 -3.08 244.85 -3.44 L 244.85 -3.44 L 244.85 -30.1 Q 244.85 -30.47 244.59 -30.82 Q 244.34 -31.18 243.8 -31.2 L 243.8 -31.2 L 240.94 -31.4 L 240.94 -33.54 L 252.15 -33.54 L 252.15 -32.2 L 261.21 -7.64 L 270.26 -32.06 L 270.26 -33.54 L 281.76 -33.54 L 281.76 -31.4 L 279.05 -31.2 Q 278.52 -31.18 278.23 -30.82 Q 277.95 -30.47 277.95 -30.1 L 277.95 -30.1 L 277.95 -3.44 Q 277.95 -3.08 278.23 -2.73 Q 278.52 -2.39 279.05 -2.34 L 279.05 -2.34 L 281.76 -2.15 Z M 308.79 -12.01 L 308.79 -12.01 Q 308.79 -8.47 307.32 -5.6 Q 305.86 -2.73 303.19 -1.06 Q 300.51 0.61 296.85 0.61 L 296.85 0.61 Q 293.21 0.61 290.55 -1.05 Q 287.89 -2.71 286.45 -5.57 Q 285.01 -8.42 285.01 -12.01 L 285.01 -12.01 Q 285.01 -15.58 286.46 -18.46 Q 287.92 -21.34 290.61 -23.02 Q 293.31 -24.71 297 -24.71 L 297 -24.71 Q 300.73 -24.71 303.37 -23 Q 306.01 -21.29 307.4 -18.41 Q 308.79 -15.53 308.79 -12.01 Z M 303.59 -12.06 L 303.59 -12.06 Q 303.59 -14.79 302.87 -17.16 Q 302.15 -19.53 300.67 -21 Q 299.19 -22.46 296.95 -22.46 L 296.95 -22.46 Q 294.63 -22.46 293.15 -21 Q 291.67 -19.53 290.97 -17.16 Q 290.26 -14.79 290.26 -12.06 L 290.26 -12.06 Q 290.26 -9.35 290.98 -6.97 Q 291.7 -4.59 293.18 -3.13 Q 294.65 -1.66 296.9 -1.66 L 296.9 -1.66 Q 299.19 -1.66 300.67 -3.13 Q 302.15 -4.59 302.87 -6.96 Q 303.59 -9.33 303.59 -12.06 Z M 351.9 -1.95 L 351.9 0 L 340.7 0 L 340.7 -1.95 L 342.8 -2.1 Q 343.85 -2.17 343.85 -3.2 L 343.85 -3.2 L 343.85 -15.94 Q 343.85 -18.26 342.88 -19.65 Q 341.92 -21.04 339.4 -21.04 L 339.4 -21.04 Q 338.16 -21.04 336.68 -20.65 Q 335.21 -20.26 334.06 -19.65 L 334.06 -19.65 L 334.06 -3.2 Q 334.06 -2.17 335.11 -2.1 L 335.11 -2.1 L 337.21 -1.95 L 337.21 0 L 326.25 0 L 326.25 -1.95 L 328.34 -2.1 Q 329.39 -2.17 329.39 -3.2 L 329.39 -3.2 L 329.39 -16.26 Q 329.39 -18.38 328.39 -19.71 Q 327.39 -21.04 325 -21.04 L 325 -21.04 Q 323.58 -21.04 322.05 -20.57 Q 320.51 -20.09 319.65 -19.6 L 319.65 -19.6 L 319.65 -3.2 Q 319.65 -2.17 320.7 -2.1 L 320.7 -2.1 L 322.8 -1.95 L 322.8 0 L 311.5 0 L 311.5 -1.95 L 313.94 -2.1 Q 314.99 -2.17 314.99 -3.2 L 314.99 -3.2 L 314.99 -20.56 L 311.55 -20.56 L 311.55 -22.19 L 317.6 -24.1 L 319.65 -24.1 L 319.65 -21.61 Q 320.78 -22.29 322.18 -23 Q 323.58 -23.71 325.05 -24.21 Q 326.51 -24.71 327.81 -24.71 L 327.81 -24.71 Q 329.98 -24.71 331.32 -23.6 Q 332.67 -22.49 333.3 -21.24 L 333.3 -21.24 Q 334.3 -21.88 335.84 -22.69 Q 337.38 -23.51 339.03 -24.11 Q 340.67 -24.71 341.99 -24.71 L 341.99 -24.71 Q 344.63 -24.71 346.02 -23.5 Q 347.41 -22.29 347.92 -20.52 Q 348.44 -18.75 348.44 -17.04 L 348.44 -17.04 L 348.44 -3.2 Q 348.44 -2.73 348.74 -2.44 Q 349.05 -2.15 349.49 -2.1 L 349.49 -2.1 L 351.9 -1.95 Z M 375.81 -5.54 L 375.81 -2.49 Q 373.71 -1.2 371.28 -0.29 Q 368.85 0.61 366.31 0.61 L 366.31 0.61 Q 363.28 0.61 360.63 -0.74 Q 357.98 -2.1 356.35 -4.86 Q 354.71 -7.62 354.71 -11.79 L 354.71 -11.79 Q 354.71 -15.7 356.23 -18.6 Q 357.74 -21.51 360.4 -23.11 Q 363.06 -24.71 366.46 -24.71 L 366.46 -24.71 Q 371.12 -24.71 373.46 -21.81 Q 375.81 -18.92 375.81 -14.45 L 375.81 -14.45 Q 375.81 -14.21 375.81 -13.81 Q 375.81 -13.4 375.76 -13.06 L 375.76 -13.06 L 359.55 -13.06 Q 359.55 -11.16 359.95 -9.27 Q 360.35 -7.37 361.3 -5.83 Q 362.26 -4.3 363.87 -3.37 Q 365.48 -2.44 367.9 -2.44 L 367.9 -2.44 Q 370.04 -2.44 372.08 -3.43 Q 374.12 -4.42 375.81 -5.54 L 375.81 -5.54 Z M 359.81 -15.31 L 370.8 -15.31 L 370.8 -16.41 Q 370.8 -18.87 369.62 -20.56 Q 368.43 -22.24 365.94 -22.24 L 365.94 -22.24 Q 363.48 -22.24 361.74 -20.39 Q 360.01 -18.53 359.81 -15.31 L 359.81 -15.31 Z M 404.86 -1.95 L 404.86 0 L 393.82 0 L 393.82 -1.95 L 395.92 -2.1 Q 396.36 -2.15 396.67 -2.44 Q 396.97 -2.73 396.97 -3.2 L 396.97 -3.2 L 396.97 -16.21 Q 396.97 -18.58 395.87 -19.81 Q 394.78 -21.04 392.16 -21.04 L 392.16 -21.04 Q 390.75 -21.04 389.34 -20.64 Q 387.94 -20.24 386.67 -19.6 L 386.67 -19.6 L 386.67 -3.2 Q 386.67 -2.17 387.72 -2.1 L 387.72 -2.1 L 389.82 -1.95 L 389.82 0 L 378.52 0 L 378.52 -1.95 L 380.96 -2.1 Q 382.01 -2.17 382.01 -3.2 L 382.01 -3.2 L 382.01 -20.56 L 378.52 -20.56 L 378.52 -22.19 L 384.62 -24.1 L 386.67 -24.1 L 386.67 -21.61 Q 388.77 -22.8 390.98 -23.75 Q 393.19 -24.71 394.92 -24.71 L 394.92 -24.71 Q 398.19 -24.71 399.9 -22.67 Q 401.61 -20.63 401.61 -16.99 L 401.61 -16.99 L 401.61 -3.2 Q 401.61 -2.73 401.92 -2.44 Q 402.22 -2.15 402.66 -2.1 L 402.66 -2.1 L 404.86 -1.95 Z M 422.51 -3.05 L 422.51 -3.05 L 422.51 -1.05 Q 422.51 -1.05 421.57 -0.63 Q 420.63 -0.22 419.1 0.2 Q 417.58 0.61 415.77 0.61 L 415.77 0.61 Q 412.96 0.61 411.68 -0.72 Q 410.4 -2.05 410.4 -5 L 410.4 -5 L 410.4 -21.61 L 407.2 -21.61 L 407.2 -23.24 L 410.62 -24.85 L 412.87 -30.15 L 415.06 -30.15 L 415.06 -24.1 L 422.12 -24.1 L 422.12 -21.61 L 415.06 -21.61 L 415.06 -7.64 Q 415.06 -4.66 416.06 -3.43 Q 417.07 -2.2 419.07 -2.2 L 419.07 -2.2 Q 420.53 -2.2 421.52 -2.62 Q 422.51 -3.05 422.51 -3.05 Z M 441.04 -7.25 L 441.04 -7.25 Q 441.04 -3.56 438.5 -1.48 Q 435.96 0.61 431.49 0.61 L 431.49 0.61 Q 429.2 0.61 427.26 0.13 Q 425.32 -0.34 424.56 -0.66 L 424.56 -0.66 L 424.56 -7.3 L 427.1 -7.3 L 427.71 -3.05 Q 428.47 -2.56 429.58 -2.11 Q 430.69 -1.66 432.15 -1.66 L 432.15 -1.66 Q 434.3 -1.66 435.47 -2.86 Q 436.65 -4.05 436.65 -5.54 L 436.65 -5.54 Q 436.65 -7.52 435.23 -8.53 Q 433.81 -9.55 431.2 -10.79 L 431.2 -10.79 L 430.54 -11.11 Q 427.81 -12.4 426.35 -13.81 Q 424.9 -15.21 424.9 -17.46 L 424.9 -17.46 Q 424.9 -20.8 427.25 -22.75 Q 429.59 -24.71 433.91 -24.71 L 433.91 -24.71 Q 436.11 -24.71 437.83 -24.3 Q 439.55 -23.9 440.31 -23.56 L 440.31 -23.56 L 440.31 -17.65 L 437.7 -17.65 L 437.3 -21.14 Q 436.77 -21.56 435.72 -21.92 Q 434.67 -22.29 433.5 -22.29 L 433.5 -22.29 Q 431.45 -22.29 430.44 -21.35 Q 429.44 -20.41 429.44 -18.95 L 429.44 -18.95 Q 429.44 -17.26 430.65 -16.27 Q 431.86 -15.28 435.03 -13.84 L 435.03 -13.84 Q 437.65 -12.65 439.34 -11.17 Q 441.04 -9.69 441.04 -7.25 Z" stroke-linecap="round" />
</g>
<g transform="matrix(2.35 0 0 2.35 550.58 795.32)"  >
<polygon style="stroke: none; stroke-width: 1; stroke-dasharray: none; stroke-linecap: butt; stroke-dashoffset: 0; stroke-linejoin: miter; stroke-miterlimit: 4; fill: rgb(255,255,255); fill-rule: nonzero; opacity: 1;" vector-effect="non-scaling-stroke"  points="34.64,9.5 34.64,24.63 -34.64,24.63 -34.64,-24.59 -19.33,-24.59 -8.7,-33.78 -44.28,-33.78 -44.28,33.78 44.28,33.78 44.28,0.2 " />
</g>
<g transform="matrix(2.35 0 0 2.35 582.06 764.89)"  >
<path style="stroke: none; stroke-width: 1; stroke-dasharray: none; stroke-linecap: butt; stroke-dashoffset: 0; stroke-linejoin: miter; stroke-miterlimit: 4; fill: rgb(255,255,255); fill-rule: nonzero; opacity: 1;" vector-effect="non-scaling-stroke"  transform=" translate(-57.74, -43.99)" d="M 69.801 51.115 C 69.801 51.115 27.071 40.099 15.543 77.976 C 15.543 77.976 11.396 23.724 69.801 23.724 L 69.801 10 L 100 37.062 L 69.801 65.031 z" stroke-linecap="round" />
</g>
<g transform="matrix(0.4 0 0 0.4 304.9 112.57)"  >
<rect style="stroke: none; stroke-width: 1; stroke-dasharray: none; stroke-linecap: butt; stroke-dashoffset: 0; stroke-linejoin: miter; stroke-miterlimit: 4; fill: none; fill-rule: nonzero; opacity: 1;" vector-effect="non-scaling-stroke"  x="-166.95" y="-166.95" rx="0" ry="0" width="333.9" height="333.9" />
</g>
</svg>